# xmcd CD database file
#
# Track frame offsets:
#	150
#	19027
#	34970
#
# Disc length: 718 seconds
#
# Revision: 0
# Processed by: cddbd v1.5.1PL2 Copyright (c) Steve Scherf et al.
# Submitted via: CDex 1.51
#
DISCID=1c02cc03
DTITLE=近藤真彦 - Ｋｉｎｇ　ＡＮＤ　Ｑｕｅｅｎ
DYEAR=1998
DGENRE=JPop
TTITLE0=Ｋｉｎｇ　ＡＮＤ　Ｑｕｅｅｎ
TTITLE1=あやまち
TTITLE2=Ｋｉｎｇ　ＡＮＤ　Ｑｕｅｅｎ（Ｏｒｉｇｉｎａｌ　Ｋａｒａｏｋｅ）
EXTD=YEAR: 1998/5/20
EXTT0=
EXTT1=
EXTT2=
PLAYORDER=
